<svg xmlns="http://www.w3.org/2000/svg" width="512" height="512" viewBox="0 0 64 64" role="img" aria-label="Logo CTI 2026">
  <defs>
    <linearGradient id="g" x1="0" x2="1" y1="0" y2="1">
      <stop offset="0%" stop-color="#0b5cd9"/>
      <stop offset="100%" stop-color="#0a49b2"/>
    </linearGradient>
  </defs>
  <rect x="2" y="2" width="60" height="60" rx="12" fill="url(#g)"/>
  <!-- Marca: C T I estilizados -->
  <g fill="#ffffff">
    <!-- C -->
    <path d="M27 18c-6 0-11 5-11 14s5 14 11 14c3.9 0 6.9-1.6 9-4.8l-4.4-2.7c-1.4 2.2-3 3.1-4.8 3.1-3.3 0-6-3.7-6-9.6s2.7-9.6 6-9.6c1.9 0 3.5.9 4.8 3.1l4.4-2.7C33.9 19.6 30.9 18 27 18z"/>
    <!-- T -->
    <rect x="35" y="18" width="16" height="4" rx="2"/>
    <rect x="42" y="22" width="4" height="20" rx="2"/>
    <!-- I -->
    <rect x="50" y="26" width="4" height="12" rx="2"/>
  </g>
</svg>